{"title":"Babel.2006.DVDRIP-ZEKTORM","uid":4678916,"size":747190845,"categoryP":"video","categoryS":"movies","magnet":"?xt=urn:btih:55f408cd776e74ebd8b1ea7e6eddb520639c4f2c&amp;dn=Babel.2006.DVDRIP-ZEKTORM&amp;tr=udp%3A%2F%2Ftracker.openbittorrent.com%3A80&amp;tr=udp%3A%2F%2Fopen.demonii.com%3A1337&amp;tr=udp%3A%2F%2Ftracker.coppersurfer.tk%3A6969&amp;tr=udp%3A%2F%2Fexodus.desync.com%3A6969","seeders":0,"leechers":0,"uploader":"blowley","files":4,"time":1233000677,"description":"Title                            : Babel\nYear                             : 2006\nGenre                            : Drama\niMDB Rate                        : User Rating: 7.7/10   73,464 votes\niMDB URL                         : http://www.imdb.com/title/tt0449467/\nAwards                           : Won Oscar. Another 25 wins &amp; 75 nominations\n\nComplete name                    : Babel.2006.DVDRIP-ZEKTORM.mp4\nFormat                           : MPEG-4\nFormat profile                   : Base Media\nCodec ID                         : isom\nFile size                        : 700 MiB\nDuration                         : 2h 23mn\nOverall bit rate                 : 682 Kbps\nSubtitles                        : English, Spanish (Format: VobSub)\nSource                           : DVD NTSC\nEncoded date                     : UTC 2009-01-24 22:33:39\n\nVideo\nFormat                           : AVC\nFormat/Info                      : Advanced Video Codec\nFormat profile                   : &lt;a class=&quot;__cf_email__&quot; href=&quot;/cdn-cgi/l/email-protection&quot; data-cfemail=&quot;e7af8e808fa7abd3c9d6&quot;&gt;[email&amp;#160;protected]&lt;/a&gt;&lt;script cf-hash='f9e31' type=&quot;text/javascript&quot;&gt;\n/* &lt;![CDATA[ */!function(){try{var t=&quot;currentScript&quot;in document?document.currentScript:function(){for(var t=document.getElementsByTagName(&quot;script&quot;),e=t.length;e--;)if(t[e].getAttribute(&quot;cf-hash&quot;))return t[e]}();if(t&amp;&amp;t.previousSibling){var e,r,n,i,c=t.previousSibling,a=c.getAttribute(&quot;data-cfemail&quot;);if(a){for(e=&quot;&quot;,r=parseInt(a.substr(0,2),16),n=2;a.length-n;n+=2)i=parseInt(a.substr(n,2),16)^r,e+=String.fromCharCode(i);e=document.createTextNode(e),c.parentNode.replaceChild(e,c)}}}catch(u){}}();/* ]]&gt; */&lt;/script&gt;\nFormat settings, CABAC           : Yes\nFormat settings, ReFrames        : 10 frames\nCodec ID                         : avc1\nCodec ID/Info                    : Advanced Video Coding\nDuration                         : 2h 23mn\nBit rate mode                    : Variable\nBit rate                         : 605 Kbps\nMaximum bit rate                 : 4320 Kbps\nWidth                            : 720 pixels\nHeight                           : 480 pixels\nDisplay aspect ratio             : 16/9\nFrame rate mode                  : Constant\nFrame rate                       : 23.976 fps\nStandard                         : NTSC\nResolution                       : 24 bits\nColorimetry                      : 4:2:0\nScan type                        : Progressive\nBits/(Pixel*Frame)               : 0.073\nStream size                      : 621 MiB (89%)\nTitle                            : Video\nWriting library                  : x264 core 60 r900 a9af942\n\nAudio\nFormat                           : AAC\nFormat/Info                      : Advanced Audio Codec\nFormat version                   : Version 4\nFormat profile                   : LC\nFormat settings, SBR             : Yes\nFormat settings, PS              : No\nCodec ID                         : 40\nDuration                         : 2h 23mn\nBit rate mode                    : Variable\nBit rate                         : 74.1 Kbps\nMaximum bit rate                 : 112 Kbps\nChannel(s)                       : 2 channels\nChannel positions                : L R\nSampling rate                    : 48.0 KHz\nResolution                       : 16 bits\nStream size                      : 76.1 MiB (11%)\nTitle                            : English\nLanguage                         : English\n\nNotes                            : Convert to DVD with Nero","torrent":{"xt":"urn:btih:55f408cd776e74ebd8b1ea7e6eddb520639c4f2c","amp;dn":"Babel.2006.DVDRIP-ZEKTORM","amp;tr":["udp%3A%2F%2Ftracker.openbittorrent.com%3A80","udp%3A%2F%2Fopen.demonii.com%3A1337","udp%3A%2F%2Ftracker.coppersurfer.tk%3A6969","udp%3A%2F%2Fexodus.desync.com%3A6969"],"infoHash":"55f408cd776e74ebd8b1ea7e6eddb520639c4f2c","infoHashBuffer":{"type":"Buffer","data":[85,244,8,205,119,110,116,235,216,177,234,126,110,221,181,32,99,156,79,44]},"announce":[],"urlList":[]}}